<mxfile modified="2024-04-07T21:48:26.115Z" host="Electron" agent="Mozilla/5.0 (X11; Linux x86_64) AppleWebKit/537.36 (KHTML, like Gecko) draw.io/24.1.0 Chrome/120.0.6099.109 Electron/28.1.0 Safari/537.36" etag="v5IYVhOMORQQFYLUGTPC" version="24.1.0" type="device">
  <diagram id="x4cQjc6QrKb0_X9qm4QU" name="Agora High Level">
    <mxGraphModel dx="3915" dy="2009" grid="0" gridSize="10" guides="1" tooltips="1" connect="1" arrows="1" fold="1" page="1" pageScale="1" pageWidth="827" pageHeight="1169" background="none" math="0" shadow="0">
      <root>
        <mxCell id="0" />
        <mxCell id="1" parent="0" />
        <object label="&lt;font style=&quot;font-size: 10px&quot;&gt;&lt;b&gt;%name%&lt;/b&gt;&lt;br style=&quot;font-size: 10px&quot;&gt;[Software System]&lt;/font&gt;" placeholders="1" name="Ethereum blockchain network" id="8zCLCm36TlPyL0DN_zaN-1">
          <mxCell style="rounded=0;whiteSpace=wrap;html=1;strokeColor=#828282;fontColor=#FFFFFF;align=left;labelPosition=center;verticalLabelPosition=middle;verticalAlign=bottom;strokeWidth=1;perimeterSpacing=0;spacing=4;spacingTop=0;fontSize=10;fillColor=none;dashed=1;dashPattern=14 14;rotatable=0;metaEdit=1;allowArrows=0;" parent="1" vertex="1">
            <mxGeometry x="174" width="440" height="480" as="geometry" />
          </mxCell>
        </object>
        <object label="&lt;font style=&quot;font-size: 10px&quot;&gt;&lt;b&gt;%name%&lt;/b&gt;&lt;br style=&quot;font-size: 10px&quot;&gt;[Container]&lt;/font&gt;" placeholders="1" name="Ethereum node" id="iMF1-VZZ27c8i7yuffg6-1">
          <mxCell style="rounded=0;whiteSpace=wrap;html=1;strokeColor=#828282;fillColor=none;fontColor=#FFFFFF;align=left;labelPosition=center;verticalLabelPosition=middle;verticalAlign=bottom;dashed=1;strokeWidth=1;perimeterSpacing=0;spacing=4;spacingTop=0;fontSize=10;dashPattern=14 14;container=0;rotatable=0;metaEdit=1;allowArrows=0;" parent="1" vertex="1">
            <mxGeometry x="206" y="40" width="330" height="390" as="geometry">
              <mxRectangle x="560" y="40" width="110" height="30" as="alternateBounds" />
            </mxGeometry>
          </mxCell>
        </object>
        <object label="&lt;div&gt;&lt;span style=&quot;font-size: 14px&quot;&gt;&lt;b&gt;%name%&lt;/b&gt;&lt;/span&gt;&lt;/div&gt;&lt;div&gt;&lt;span style=&quot;font-size: 8px&quot;&gt;[Software System&lt;/span&gt;&lt;span style=&quot;font-size: 8px&quot;&gt;]&lt;/span&gt;&lt;/div&gt;&lt;div&gt;&lt;span style=&quot;font-size: 8px&quot;&gt;&lt;br&gt;&lt;/span&gt;&lt;/div&gt;&lt;div&gt;&lt;font size=&quot;1&quot;&gt;%description%&lt;/font&gt;&lt;/div&gt;" placeholders="1" name="EVM&#xa;(Ethereum Virtual Machine)" description="The virtual machine present on every blockchain node" id="4mZEk1iroGOWjw6Mvnr2-1">
          <mxCell style="rounded=0;whiteSpace=wrap;html=1;fillColor=#999999;fontColor=#FFFFFF;strokeColor=#828282;resizable=0;rotatable=0;metaEdit=1;allowArrows=0;" parent="1" vertex="1">
            <mxGeometry x="281" y="82" width="180" height="120" as="geometry" />
          </mxCell>
        </object>
        <object label="&lt;div&gt;&lt;span style=&quot;font-size: 14px&quot;&gt;&lt;b&gt;%name%&lt;/b&gt;&lt;/span&gt;&lt;/div&gt;&lt;div&gt;&lt;span style=&quot;font-size: 8px&quot;&gt;[Component: %technology%]&lt;/span&gt;&lt;/div&gt;&lt;div&gt;&lt;span style=&quot;font-size: 8px&quot;&gt;&lt;br&gt;&lt;/span&gt;&lt;/div&gt;&lt;div&gt;&lt;font size=&quot;1&quot;&gt;%description%&lt;/font&gt;&lt;/div&gt;" placeholders="1" name="Agora smart contracts" technology="Solidity" description="The smart contracts deployed on the Ethereum blockchain. They implements a zkSNARKs protocol" id="1DTGawhpiIEdZtZT-MbX-1">
          <mxCell style="rounded=0;whiteSpace=wrap;html=1;fillColor=#85baf0;fontColor=#000000;strokeColor=#6992BD;resizable=0;rotatable=0;metaEdit=1;allowArrows=0;" parent="1" vertex="1">
            <mxGeometry x="281" y="279" width="180" height="120" as="geometry" />
          </mxCell>
        </object>
        <object label="&lt;span style=&quot;font-size: 10px&quot;&gt;&lt;b&gt;%name%&lt;/b&gt;&lt;br&gt;[%technology%]&lt;br&gt;&lt;/span&gt;" placeholders="1" name="executes" technology="bytecode" id="Zc9-EoE2qIDx_mT14fFP-1">
          <mxCell style="endArrow=block;html=1;fontSize=10;fontColor=#FFFFFF;strokeWidth=1;endFill=1;strokeColor=#828282;elbow=vertical;metaEdit=1;exitX=0.5;exitY=1;exitDx=0;exitDy=0;entryX=0.5;entryY=0;entryDx=0;entryDy=0;" parent="1" source="4mZEk1iroGOWjw6Mvnr2-1" target="1DTGawhpiIEdZtZT-MbX-1" edge="1">
            <mxGeometry width="50" height="50" relative="1" as="geometry">
              <mxPoint x="-465" y="1185" as="sourcePoint" />
              <mxPoint x="-265" y="1185" as="targetPoint" />
            </mxGeometry>
          </mxCell>
        </object>
        <object label="&lt;font style=&quot;font-size: 10px&quot;&gt;&lt;b&gt;%name%&lt;/b&gt;&lt;br style=&quot;font-size: 10px&quot;&gt;[Software System]&lt;/font&gt;" placeholders="1" name="Agora" id="gFhG6YHdSdo2MWqxFPzN-1">
          <mxCell style="rounded=0;whiteSpace=wrap;html=1;strokeColor=#828282;fontColor=#FFFFFF;align=left;labelPosition=center;verticalLabelPosition=middle;verticalAlign=bottom;strokeWidth=1;perimeterSpacing=0;spacing=4;spacingTop=0;fontSize=10;fillColor=none;dashed=1;dashPattern=14 14;rotatable=0;metaEdit=1;allowArrows=0;" parent="1" vertex="1">
            <mxGeometry x="-1520" y="-140" width="1440" height="700" as="geometry" />
          </mxCell>
        </object>
        <object label="&lt;font style=&quot;font-size: 10px&quot;&gt;&lt;b&gt;%name%&lt;/b&gt;&lt;br style=&quot;font-size: 10px&quot;&gt;[Container]&lt;/font&gt;" placeholders="1" name="Back end" id="rlPIaTtVboxuI6gkkUt_-1">
          <mxCell style="rounded=0;whiteSpace=wrap;html=1;strokeColor=#828282;fillColor=none;fontColor=#FFFFFF;align=left;labelPosition=center;verticalLabelPosition=middle;verticalAlign=bottom;dashed=1;strokeWidth=1;perimeterSpacing=0;spacing=4;spacingTop=0;fontSize=10;dashPattern=14 14;container=0;rotatable=0;metaEdit=1;allowArrows=0;" parent="1" vertex="1">
            <mxGeometry x="-739" y="-100" width="580" height="620" as="geometry">
              <mxRectangle x="560" y="40" width="110" height="30" as="alternateBounds" />
            </mxGeometry>
          </mxCell>
        </object>
        <object label="&lt;div&gt;&lt;span style=&quot;font-size: 14px&quot;&gt;&lt;b&gt;%name%&lt;/b&gt;&lt;/span&gt;&lt;/div&gt;&lt;div&gt;&lt;span style=&quot;font-size: 8px&quot;&gt;[Component: %technology%]&lt;/span&gt;&lt;/div&gt;&lt;div&gt;&lt;span style=&quot;font-size: 8px&quot;&gt;&lt;br&gt;&lt;/span&gt;&lt;/div&gt;&lt;div&gt;&lt;font size=&quot;1&quot;&gt;%description%&lt;/font&gt;&lt;/div&gt;" placeholders="1" name="Smart contracts ABI" technology="Solidity" description="Application Binary Interfaces, helps the high level language to interact with the smart contracts bytecode on EVM" id="rlPIaTtVboxuI6gkkUt_-2">
          <mxCell style="rounded=0;whiteSpace=wrap;html=1;fillColor=#85baf0;fontColor=#000000;strokeColor=#6992BD;resizable=0;rotatable=0;metaEdit=1;allowArrows=0;" parent="1" vertex="1">
            <mxGeometry x="-380" y="-70" width="180" height="120" as="geometry" />
          </mxCell>
        </object>
        <object label="&lt;div&gt;&lt;span style=&quot;font-size: 14px&quot;&gt;&lt;b&gt;%name%&lt;/b&gt;&lt;/span&gt;&lt;/div&gt;&lt;div&gt;&lt;span style=&quot;font-size: 8px&quot;&gt;[Component: %technology%]&lt;/span&gt;&lt;/div&gt;&lt;div&gt;&lt;span style=&quot;font-size: 8px&quot;&gt;&lt;br&gt;&lt;/span&gt;&lt;/div&gt;&lt;div&gt;&lt;font size=&quot;1&quot;&gt;%description%&lt;/font&gt;&lt;/div&gt;" placeholders="1" name="Ethers.js library" technology="JavaScript" description="A third party library that interact with the Ethereum blockchain and exposes JS API" id="BPiqEpN3ACYY41KuNl8t-1">
          <mxCell style="rounded=0;whiteSpace=wrap;html=1;fillColor=#85baf0;fontColor=#000000;strokeColor=#6992BD;resizable=0;rotatable=0;metaEdit=1;allowArrows=0;" parent="1" vertex="1">
            <mxGeometry x="-380" y="140" width="180" height="120" as="geometry" />
          </mxCell>
        </object>
        <object label="&lt;span style=&quot;font-size: 10px&quot;&gt;&lt;b&gt;%name%&lt;/b&gt;&lt;br&gt;&lt;/span&gt;" placeholders="1" name="Uses" id="uY-crybyiylODFAFYUoO-1">
          <mxCell style="endArrow=block;html=1;fontSize=10;fontColor=#FFFFFF;strokeWidth=1;endFill=1;strokeColor=#828282;elbow=vertical;metaEdit=1;exitX=0.5;exitY=0;exitDx=0;exitDy=0;entryX=0.5;entryY=1;entryDx=0;entryDy=0;" parent="1" source="BPiqEpN3ACYY41KuNl8t-1" target="rlPIaTtVboxuI6gkkUt_-2" edge="1">
            <mxGeometry width="50" height="50" relative="1" as="geometry">
              <mxPoint x="-290" y="190" as="sourcePoint" />
              <mxPoint x="-90" y="190" as="targetPoint" />
            </mxGeometry>
          </mxCell>
        </object>
        <object label="&lt;div&gt;&lt;span style=&quot;font-size: 14px&quot;&gt;&lt;b&gt;%name%&lt;/b&gt;&lt;/span&gt;&lt;/div&gt;&lt;div&gt;&lt;span style=&quot;font-size: 8px&quot;&gt;[Component: %technology%]&lt;/span&gt;&lt;/div&gt;&lt;div&gt;&lt;span style=&quot;font-size: 8px&quot;&gt;&lt;br&gt;&lt;/span&gt;&lt;/div&gt;&lt;div&gt;&lt;font size=&quot;1&quot;&gt;%description%&lt;/font&gt;&lt;/div&gt;" placeholders="1" name="Utilities scripts" technology="JavaScript" description="A set of scripts that provides utilities for interacting with the smart contracts (e.g. smart contract deploy)" id="uY-crybyiylODFAFYUoO-2">
          <mxCell style="rounded=0;whiteSpace=wrap;html=1;fillColor=#85baf0;fontColor=#000000;strokeColor=#6992BD;resizable=0;rotatable=0;metaEdit=1;allowArrows=0;" parent="1" vertex="1">
            <mxGeometry x="-380" y="360" width="180" height="120" as="geometry" />
          </mxCell>
        </object>
        <object label="&lt;span style=&quot;font-size: 10px&quot;&gt;&lt;b&gt;%name%&lt;/b&gt;&lt;br&gt;&lt;/span&gt;" placeholders="1" name="uses" id="uY-crybyiylODFAFYUoO-3">
          <mxCell style="endArrow=block;html=1;fontSize=10;fontColor=#FFFFFF;strokeWidth=1;endFill=1;strokeColor=#828282;elbow=vertical;metaEdit=1;exitX=0.5;exitY=0;exitDx=0;exitDy=0;entryX=0.5;entryY=1;entryDx=0;entryDy=0;" parent="1" source="uY-crybyiylODFAFYUoO-2" target="BPiqEpN3ACYY41KuNl8t-1" edge="1">
            <mxGeometry width="50" height="50" relative="1" as="geometry">
              <mxPoint x="-440" y="410" as="sourcePoint" />
              <mxPoint x="-440" y="320" as="targetPoint" />
            </mxGeometry>
          </mxCell>
        </object>
        <object label="&lt;div&gt;&lt;span style=&quot;font-size: 14px&quot;&gt;&lt;b&gt;%name%&lt;/b&gt;&lt;/span&gt;&lt;/div&gt;&lt;div&gt;&lt;span style=&quot;font-size: 8px&quot;&gt;[Software System&lt;/span&gt;&lt;span style=&quot;font-size: 8px&quot;&gt;]&lt;/span&gt;&lt;/div&gt;&lt;div&gt;&lt;span style=&quot;font-size: 8px&quot;&gt;&lt;br&gt;&lt;/span&gt;&lt;/div&gt;&lt;div&gt;&lt;font size=&quot;1&quot;&gt;%description%&lt;/font&gt;&lt;/div&gt;" placeholders="1" name="Alchemy" description="The Alchemy SDK interacts with the underlying blockchain network" id="-zjGJdlXMzJi_3BQqytm-1">
          <mxCell style="rounded=0;whiteSpace=wrap;html=1;fillColor=#999999;fontColor=#FFFFFF;strokeColor=#828282;resizable=0;rotatable=0;metaEdit=1;allowArrows=0;" parent="1" vertex="1">
            <mxGeometry x="-48" y="147" width="180" height="120" as="geometry" />
          </mxCell>
        </object>
        <object label="&lt;div&gt;&lt;span style=&quot;font-size: 14px&quot;&gt;&lt;b&gt;%name%&lt;/b&gt;&lt;/span&gt;&lt;/div&gt;&lt;div&gt;&lt;span style=&quot;font-size: 8px&quot;&gt;[Component: %technology%]&lt;/span&gt;&lt;/div&gt;&lt;div&gt;&lt;span style=&quot;font-size: 8px&quot;&gt;&lt;br&gt;&lt;/span&gt;&lt;/div&gt;&lt;div&gt;&lt;font size=&quot;1&quot;&gt;%description%&lt;/font&gt;&lt;/div&gt;" placeholders="1" name="Node.js Server" technology="JavaScript" description="Exposes the REST APIs" id="mZeIi5heuTbLkXtXWwRR-3">
          <mxCell style="rounded=0;whiteSpace=wrap;html=1;fillColor=#85baf0;fontColor=#000000;strokeColor=#6992BD;resizable=0;rotatable=0;metaEdit=1;allowArrows=0;" parent="1" vertex="1">
            <mxGeometry x="-700" y="140" width="180" height="120" as="geometry" />
          </mxCell>
        </object>
        <object label="&lt;span style=&quot;font-size: 10px&quot;&gt;&lt;b&gt;%name%&lt;/b&gt;&lt;br&gt;&lt;/span&gt;" placeholders="1" name="uses" id="mZeIi5heuTbLkXtXWwRR-4">
          <mxCell style="endArrow=block;html=1;fontSize=10;fontColor=#FFFFFF;strokeWidth=1;endFill=1;strokeColor=#828282;elbow=vertical;metaEdit=1;exitX=1;exitY=0.5;exitDx=0;exitDy=0;entryX=0;entryY=0.5;entryDx=0;entryDy=0;" parent="1" source="mZeIi5heuTbLkXtXWwRR-3" target="BPiqEpN3ACYY41KuNl8t-1" edge="1">
            <mxGeometry width="50" height="50" relative="1" as="geometry">
              <mxPoint x="-450" y="240" as="sourcePoint" />
              <mxPoint x="-450" y="140" as="targetPoint" />
            </mxGeometry>
          </mxCell>
        </object>
        <object label="&lt;div&gt;&lt;span style=&quot;font-size: 14px&quot;&gt;&lt;b&gt;%name%&lt;/b&gt;&lt;/span&gt;&lt;/div&gt;&lt;div&gt;&lt;span style=&quot;font-size: 8px&quot;&gt;[Software System&lt;/span&gt;&lt;span style=&quot;font-size: 8px&quot;&gt;]&lt;/span&gt;&lt;/div&gt;&lt;div&gt;&lt;span style=&quot;font-size: 8px&quot;&gt;&lt;br&gt;&lt;/span&gt;&lt;/div&gt;&lt;div&gt;&lt;font size=&quot;1&quot;&gt;%description%&lt;/font&gt;&lt;/div&gt;" placeholders="1" name="Database" description="A documental non-relational database, where the data is stored." id="RlWboZDz-zzXiB4MwjSa-1">
          <mxCell style="rounded=0;whiteSpace=wrap;html=1;fillColor=#999999;fontColor=#FFFFFF;strokeColor=#828282;resizable=0;rotatable=0;metaEdit=1;allowArrows=0;" parent="1" vertex="1">
            <mxGeometry x="-700" y="-290" width="180" height="120" as="geometry" />
          </mxCell>
        </object>
        <object label="&lt;span style=&quot;font-size: 10px&quot;&gt;&lt;b&gt;%name%&lt;/b&gt;&lt;br&gt;[%technology%]&lt;br&gt;&lt;/span&gt;" placeholders="1" name="uses" technology="HTTP" id="N3J5PfkJafUCaIe0_Fup-1">
          <mxCell style="endArrow=block;html=1;fontSize=10;fontColor=#FFFFFF;strokeWidth=1;endFill=1;strokeColor=#828282;elbow=vertical;metaEdit=1;exitX=0.5;exitY=0;exitDx=0;exitDy=0;entryX=0.5;entryY=1;entryDx=0;entryDy=0;" parent="1" source="mZeIi5heuTbLkXtXWwRR-3" target="RlWboZDz-zzXiB4MwjSa-1" edge="1">
            <mxGeometry width="50" height="50" relative="1" as="geometry">
              <mxPoint x="-640" y="20" as="sourcePoint" />
              <mxPoint x="-440" y="20" as="targetPoint" />
              <mxPoint as="offset" />
            </mxGeometry>
          </mxCell>
        </object>
        <object label="&lt;font style=&quot;font-size: 10px&quot;&gt;&lt;b&gt;%name%&lt;/b&gt;&lt;br style=&quot;font-size: 10px&quot;&gt;[Container]&lt;/font&gt;" placeholders="1" name="Front end SPA" id="N3J5PfkJafUCaIe0_Fup-4">
          <mxCell style="rounded=0;whiteSpace=wrap;html=1;strokeColor=#828282;fillColor=none;fontColor=#FFFFFF;align=left;labelPosition=center;verticalLabelPosition=middle;verticalAlign=bottom;dashed=1;strokeWidth=1;perimeterSpacing=0;spacing=4;spacingTop=0;fontSize=10;dashPattern=14 14;container=0;rotatable=0;metaEdit=1;allowArrows=0;" parent="1" vertex="1">
            <mxGeometry x="-1480" y="-100" width="670" height="620" as="geometry">
              <mxRectangle x="560" y="40" width="110" height="30" as="alternateBounds" />
            </mxGeometry>
          </mxCell>
        </object>
        <object label="&lt;div&gt;&lt;span style=&quot;font-size: 14px&quot;&gt;&lt;b&gt;%name%&lt;/b&gt;&lt;/span&gt;&lt;/div&gt;&lt;div&gt;&lt;span style=&quot;font-size: 8px&quot;&gt;[Component: %technology%]&lt;/span&gt;&lt;/div&gt;&lt;div&gt;&lt;span style=&quot;font-size: 8px&quot;&gt;&lt;br&gt;&lt;/span&gt;&lt;/div&gt;&lt;div&gt;&lt;font size=&quot;1&quot;&gt;%description%&lt;/font&gt;&lt;/div&gt;" placeholders="1" name="React" technology="JavaScript" description="js library for SPA (single page applications)" id="N3J5PfkJafUCaIe0_Fup-5">
          <mxCell style="rounded=0;whiteSpace=wrap;html=1;fillColor=#85baf0;fontColor=#000000;strokeColor=#6992BD;resizable=0;rotatable=0;metaEdit=1;allowArrows=0;" parent="1" vertex="1">
            <mxGeometry x="-1020" y="120" width="180" height="120" as="geometry" />
          </mxCell>
        </object>
        <object label="&lt;div&gt;&lt;span style=&quot;font-size: 14px&quot;&gt;&lt;b&gt;%name%&lt;/b&gt;&lt;/span&gt;&lt;/div&gt;&lt;div&gt;&lt;span style=&quot;font-size: 8px&quot;&gt;[Component: %technology%]&lt;/span&gt;&lt;/div&gt;&lt;div&gt;&lt;span style=&quot;font-size: 8px&quot;&gt;&lt;br&gt;&lt;/span&gt;&lt;/div&gt;&lt;div&gt;&lt;font size=&quot;1&quot;&gt;%description%&lt;/font&gt;&lt;/div&gt;" placeholders="1" name="Admin Panel" technology="JavaScript" description="set of pages for Admin users" id="N3J5PfkJafUCaIe0_Fup-6">
          <mxCell style="rounded=0;whiteSpace=wrap;html=1;fillColor=#85baf0;fontColor=#000000;strokeColor=#6992BD;resizable=0;rotatable=0;metaEdit=1;allowArrows=0;" parent="1" vertex="1">
            <mxGeometry x="-1280" y="-80" width="180" height="120" as="geometry" />
          </mxCell>
        </object>
        <object label="&lt;div&gt;&lt;span style=&quot;font-size: 14px&quot;&gt;&lt;b&gt;%name%&lt;/b&gt;&lt;/span&gt;&lt;/div&gt;&lt;div&gt;&lt;span style=&quot;font-size: 8px&quot;&gt;[Component: %technology%]&lt;/span&gt;&lt;/div&gt;&lt;div&gt;&lt;span style=&quot;font-size: 8px&quot;&gt;&lt;br&gt;&lt;/span&gt;&lt;/div&gt;&lt;div&gt;&lt;font size=&quot;1&quot;&gt;%description%&lt;/font&gt;&lt;/div&gt;" placeholders="1" name="Voter Panel" technology="JavaScript" description="set of pages for Voter users" id="N3J5PfkJafUCaIe0_Fup-7">
          <mxCell style="rounded=0;whiteSpace=wrap;html=1;fillColor=#85baf0;fontColor=#000000;strokeColor=#6992BD;resizable=0;rotatable=0;metaEdit=1;allowArrows=0;" parent="1" vertex="1">
            <mxGeometry x="-1280" y="320" width="180" height="120" as="geometry" />
          </mxCell>
        </object>
        <object label="&lt;div&gt;&lt;span style=&quot;font-size: 14px&quot;&gt;&lt;b&gt;%name%&lt;/b&gt;&lt;/span&gt;&lt;/div&gt;&lt;div&gt;&lt;span style=&quot;font-size: 8px&quot;&gt;[Component: %technology%]&lt;/span&gt;&lt;/div&gt;&lt;div&gt;&lt;span style=&quot;font-size: 8px&quot;&gt;&lt;br&gt;&lt;/span&gt;&lt;/div&gt;&lt;div&gt;&lt;font size=&quot;1&quot;&gt;%description%&lt;/font&gt;&lt;/div&gt;" placeholders="1" name="Home Page" technology="HTML" description="Contains elections data and components for login/register users" id="N3J5PfkJafUCaIe0_Fup-9">
          <mxCell style="rounded=0;whiteSpace=wrap;html=1;fillColor=#85baf0;fontColor=#000000;strokeColor=#6992BD;resizable=0;rotatable=0;metaEdit=1;allowArrows=0;" parent="1" vertex="1">
            <mxGeometry x="-1280" y="120" width="180" height="120" as="geometry" />
          </mxCell>
        </object>
        <object label="&lt;span style=&quot;font-size: 10px&quot;&gt;&lt;b&gt;%name%&lt;/b&gt;&lt;br&gt;&lt;/span&gt;" placeholders="1" name="redirect to" id="5jA24EbEcbqocshlrsuv-1">
          <mxCell style="endArrow=block;html=1;fontSize=10;fontColor=#FFFFFF;strokeWidth=1;endFill=1;strokeColor=#828282;elbow=vertical;metaEdit=1;exitX=0.5;exitY=0;exitDx=0;exitDy=0;entryX=0.5;entryY=1;entryDx=0;entryDy=0;" parent="1" source="N3J5PfkJafUCaIe0_Fup-9" target="N3J5PfkJafUCaIe0_Fup-6" edge="1">
            <mxGeometry width="50" height="50" relative="1" as="geometry">
              <mxPoint x="-1380" y="70" as="sourcePoint" />
              <mxPoint x="-1180" y="70" as="targetPoint" />
              <Array as="points" />
            </mxGeometry>
          </mxCell>
        </object>
        <object label="&lt;span style=&quot;font-size: 10px&quot;&gt;&lt;b&gt;%name%&lt;/b&gt;&lt;br&gt;&lt;/span&gt;" placeholders="1" name="redirect to" id="5jA24EbEcbqocshlrsuv-2">
          <mxCell style="endArrow=block;html=1;fontSize=10;fontColor=#FFFFFF;strokeWidth=1;endFill=1;strokeColor=#828282;elbow=vertical;metaEdit=1;exitX=0.5;exitY=1;exitDx=0;exitDy=0;entryX=0.5;entryY=0;entryDx=0;entryDy=0;" parent="1" source="N3J5PfkJafUCaIe0_Fup-9" target="N3J5PfkJafUCaIe0_Fup-7" edge="1">
            <mxGeometry width="50" height="50" relative="1" as="geometry">
              <mxPoint x="-1400" y="380" as="sourcePoint" />
              <mxPoint x="-1260" y="320" as="targetPoint" />
              <Array as="points">
                <mxPoint x="-1190" y="320" />
              </Array>
            </mxGeometry>
          </mxCell>
        </object>
        <object label="&lt;span style=&quot;font-size: 10px&quot;&gt;&lt;b&gt;%name%&lt;/b&gt;&lt;br&gt;&lt;/span&gt;" placeholders="1" name="uses" id="d8Zayz1zDranGjSibhy0-1">
          <mxCell style="endArrow=block;html=1;fontSize=10;fontColor=#FFFFFF;strokeWidth=1;endFill=1;strokeColor=#828282;elbow=vertical;metaEdit=1;exitX=1;exitY=0.5;exitDx=0;exitDy=0;entryX=0.5;entryY=0;entryDx=0;entryDy=0;" parent="1" source="N3J5PfkJafUCaIe0_Fup-6" target="N3J5PfkJafUCaIe0_Fup-5" edge="1">
            <mxGeometry width="50" height="50" relative="1" as="geometry">
              <mxPoint x="-1060" y="20" as="sourcePoint" />
              <mxPoint x="-860" y="20" as="targetPoint" />
              <Array as="points">
                <mxPoint x="-930" y="-20" />
              </Array>
            </mxGeometry>
          </mxCell>
        </object>
        <object label="&lt;span style=&quot;font-size: 10px&quot;&gt;&lt;b&gt;%name%&lt;/b&gt;&lt;br&gt;&lt;/span&gt;" placeholders="1" name="uses" id="d8Zayz1zDranGjSibhy0-2">
          <mxCell style="endArrow=block;html=1;fontSize=10;fontColor=#FFFFFF;strokeWidth=1;endFill=1;strokeColor=#828282;elbow=vertical;metaEdit=1;exitX=1;exitY=0.5;exitDx=0;exitDy=0;entryX=0;entryY=0.5;entryDx=0;entryDy=0;" parent="1" source="N3J5PfkJafUCaIe0_Fup-9" target="N3J5PfkJafUCaIe0_Fup-5" edge="1">
            <mxGeometry width="50" height="50" relative="1" as="geometry">
              <mxPoint x="-1080" y="270" as="sourcePoint" />
              <mxPoint x="-880" y="270" as="targetPoint" />
            </mxGeometry>
          </mxCell>
        </object>
        <object label="&lt;span style=&quot;font-size: 10px&quot;&gt;&lt;b&gt;%name%&lt;/b&gt;&lt;br&gt;&lt;/span&gt;" placeholders="1" name="uses" id="d8Zayz1zDranGjSibhy0-3">
          <mxCell style="endArrow=block;html=1;fontSize=10;fontColor=#FFFFFF;strokeWidth=1;endFill=1;strokeColor=#828282;elbow=vertical;metaEdit=1;exitX=1;exitY=0.5;exitDx=0;exitDy=0;entryX=0.5;entryY=1;entryDx=0;entryDy=0;" parent="1" source="N3J5PfkJafUCaIe0_Fup-7" target="N3J5PfkJafUCaIe0_Fup-5" edge="1">
            <mxGeometry width="50" height="50" relative="1" as="geometry">
              <mxPoint x="-1050" y="379.5" as="sourcePoint" />
              <mxPoint x="-850" y="379.5" as="targetPoint" />
              <Array as="points">
                <mxPoint x="-930" y="380" />
              </Array>
            </mxGeometry>
          </mxCell>
        </object>
        <object label="&lt;span style=&quot;font-size: 10px&quot;&gt;&lt;b&gt;%name%&lt;/b&gt;&lt;br&gt;[%technology%]&lt;br&gt;&lt;/span&gt;" placeholders="1" name="invokes" technology="HTTP" id="JeeCy8IjnMUS0gYqwGPu-1">
          <mxCell style="endArrow=block;html=1;fontSize=10;fontColor=#FFFFFF;strokeWidth=1;endFill=1;strokeColor=#828282;elbow=vertical;metaEdit=1;exitX=1;exitY=0.5;exitDx=0;exitDy=0;entryX=0;entryY=0.5;entryDx=0;entryDy=0;" parent="1" source="5j92J8PmLVZzk6j81RDq-2" target="gFhG6YHdSdo2MWqxFPzN-1" edge="1">
            <mxGeometry width="50" height="50" relative="1" as="geometry">
              <mxPoint x="-1700" y="390" as="sourcePoint" />
              <mxPoint x="-1560" y="520" as="targetPoint" />
              <mxPoint as="offset" />
            </mxGeometry>
          </mxCell>
        </object>
        <object label="" placeholders="1" instruction="edit data of the lower shape within the group" id="5j92J8PmLVZzk6j81RDq-1">
          <mxCell style="group;resizable=0;rotatable=0;metaEdit=1;allowArrows=0;" parent="1" vertex="1" connectable="0">
            <mxGeometry x="-1814" y="90" width="160" height="170" as="geometry" />
          </mxCell>
        </object>
        <object label="&lt;div style=&quot;color: rgb(255 , 255 , 255) ; white-space: normal&quot;&gt;&lt;span style=&quot;font-size: 14px&quot;&gt;&lt;b&gt;%name%&lt;/b&gt;&lt;/span&gt;&lt;/div&gt;&lt;div style=&quot;color: rgb(255 , 255 , 255) ; white-space: normal&quot;&gt;&lt;font style=&quot;font-size: 8px&quot;&gt;[Person]&lt;/font&gt;&lt;/div&gt;&lt;div style=&quot;color: rgb(255 , 255 , 255) ; white-space: normal ; font-size: 8px&quot;&gt;&lt;span style=&quot;font-size: x-small&quot;&gt;&lt;br&gt;&lt;/span&gt;&lt;/div&gt;&lt;div style=&quot;color: rgb(255 , 255 , 255) ; white-space: normal&quot;&gt;&lt;font size=&quot;1&quot;&gt;%description%&lt;/font&gt;&lt;/div&gt;" name="User" description="An Admin that wants to create or manage an election or a Voter that casts a vote" placeholders="1" id="5j92J8PmLVZzk6j81RDq-2">
          <mxCell style="rounded=1;whiteSpace=wrap;html=1;strokeColor=#828282;fillColor=#999999;fontColor=#000000;arcSize=31;metaEdit=1;allowArrows=0;" parent="5j92J8PmLVZzk6j81RDq-1" vertex="1">
            <mxGeometry y="70" width="160" height="100" as="geometry" />
          </mxCell>
        </object>
        <mxCell id="5j92J8PmLVZzk6j81RDq-3" value="" style="ellipse;whiteSpace=wrap;html=1;aspect=fixed;strokeColor=#828282;fillColor=#999999;fontColor=#000000;allowArrows=0;" parent="5j92J8PmLVZzk6j81RDq-1" vertex="1">
          <mxGeometry x="40" width="80" height="80" as="geometry" />
        </mxCell>
        <object label="&lt;span style=&quot;font-size: 10px&quot;&gt;&lt;b&gt;%name%&lt;/b&gt;&lt;br&gt;&lt;/span&gt;" placeholders="1" name="uses" id="Of3BvKV9Z6P5hoSYGOiL-1">
          <mxCell style="endArrow=block;html=1;fontSize=10;fontColor=#FFFFFF;strokeWidth=1;endFill=1;strokeColor=#828282;elbow=vertical;metaEdit=1;exitX=1.003;exitY=0.482;exitDx=0;exitDy=0;exitPerimeter=0;entryX=0.011;entryY=0.433;entryDx=0;entryDy=0;entryPerimeter=0;" edge="1" parent="1" source="rlPIaTtVboxuI6gkkUt_-1" target="-zjGJdlXMzJi_3BQqytm-1">
            <mxGeometry width="50" height="50" relative="1" as="geometry">
              <mxPoint x="-159.15999999999985" y="198.2199999999998" as="sourcePoint" />
              <mxPoint x="-44" y="201" as="targetPoint" />
            </mxGeometry>
          </mxCell>
        </object>
        <object label="&lt;span style=&quot;font-size: 10px&quot;&gt;&lt;b&gt;%name%&lt;/b&gt;&lt;br&gt;&lt;/span&gt;" placeholders="1" name="uses" id="Of3BvKV9Z6P5hoSYGOiL-2">
          <mxCell style="endArrow=block;html=1;fontSize=10;fontColor=#FFFFFF;strokeWidth=1;endFill=1;strokeColor=#828282;elbow=vertical;metaEdit=1;exitX=0.989;exitY=0.425;exitDx=0;exitDy=0;entryX=0;entryY=0.41;entryDx=0;entryDy=0;exitPerimeter=0;entryPerimeter=0;" edge="1" parent="1" source="-zjGJdlXMzJi_3BQqytm-1" target="iMF1-VZZ27c8i7yuffg6-1">
            <mxGeometry width="50" height="50" relative="1" as="geometry">
              <mxPoint x="290" y="200" as="sourcePoint" />
              <mxPoint x="430" y="200" as="targetPoint" />
            </mxGeometry>
          </mxCell>
        </object>
        <object label="&lt;span style=&quot;font-size: 10px&quot;&gt;&lt;b&gt;%name%&lt;/b&gt;&lt;br&gt;&lt;/span&gt;" placeholders="1" name="invokes REST APIs" id="Of3BvKV9Z6P5hoSYGOiL-3">
          <mxCell style="endArrow=block;html=1;fontSize=10;fontColor=#FFFFFF;strokeWidth=1;endFill=1;strokeColor=#828282;elbow=vertical;metaEdit=1;exitX=1.004;exitY=0.419;exitDx=0;exitDy=0;exitPerimeter=0;entryX=0.002;entryY=0.418;entryDx=0;entryDy=0;entryPerimeter=0;" edge="1" parent="1" source="N3J5PfkJafUCaIe0_Fup-4" target="rlPIaTtVboxuI6gkkUt_-1">
            <mxGeometry y="20" width="50" height="50" relative="1" as="geometry">
              <mxPoint x="-800" y="200" as="sourcePoint" />
              <mxPoint x="-740" y="200" as="targetPoint" />
              <mxPoint as="offset" />
            </mxGeometry>
          </mxCell>
        </object>
        <object label="&lt;span style=&quot;font-size: 10px&quot;&gt;&lt;b&gt;%name%&lt;/b&gt;&lt;br&gt;&lt;/span&gt;" placeholders="1" name="returns answer" id="Of3BvKV9Z6P5hoSYGOiL-4">
          <mxCell style="endArrow=block;html=1;fontSize=10;fontColor=#FFFFFF;strokeWidth=1;endFill=1;strokeColor=#828282;elbow=vertical;metaEdit=1;entryX=1.001;entryY=0.513;entryDx=0;entryDy=0;entryPerimeter=0;" edge="1" parent="1" target="N3J5PfkJafUCaIe0_Fup-4">
            <mxGeometry x="-0.0769" y="-20" width="50" height="50" relative="1" as="geometry">
              <mxPoint x="-740" y="218" as="sourcePoint" />
              <mxPoint x="-800" y="220" as="targetPoint" />
              <mxPoint as="offset" />
            </mxGeometry>
          </mxCell>
        </object>
        <object label="&lt;span style=&quot;font-size: 10px&quot;&gt;&lt;b&gt;%name%&lt;/b&gt;&lt;br&gt;[%technology%]&lt;br&gt;&lt;/span&gt;" placeholders="1" name="uses" technology="" id="Of3BvKV9Z6P5hoSYGOiL-5">
          <mxCell style="endArrow=block;html=1;fontSize=10;fontColor=#FFFFFF;strokeWidth=1;endFill=1;strokeColor=#828282;elbow=vertical;metaEdit=1;exitX=0.5;exitY=1;exitDx=0;exitDy=0;entryX=0.456;entryY=0.017;entryDx=0;entryDy=0;entryPerimeter=0;" edge="1" parent="1" source="5j92J8PmLVZzk6j81RDq-2" target="Of3BvKV9Z6P5hoSYGOiL-7">
            <mxGeometry width="50" height="50" relative="1" as="geometry">
              <mxPoint x="-1910" y="440" as="sourcePoint" />
              <mxPoint x="-1960" y="590" as="targetPoint" />
              <mxPoint as="offset" />
            </mxGeometry>
          </mxCell>
        </object>
        <object label="&lt;span style=&quot;font-size: 10px&quot;&gt;&lt;b&gt;%name%&lt;/b&gt;&lt;br&gt;[%technology%]&lt;br&gt;&lt;/span&gt;" placeholders="1" name="sends vote" technology="HTTP" id="Of3BvKV9Z6P5hoSYGOiL-6">
          <mxCell style="endArrow=block;html=1;fontSize=10;fontColor=#FFFFFF;strokeWidth=1;endFill=1;strokeColor=#828282;elbow=vertical;metaEdit=1;entryX=0.5;entryY=1;entryDx=0;entryDy=0;exitX=1;exitY=0.5;exitDx=0;exitDy=0;" edge="1" parent="1" source="Of3BvKV9Z6P5hoSYGOiL-7" target="1DTGawhpiIEdZtZT-MbX-1">
            <mxGeometry width="50" height="50" relative="1" as="geometry">
              <mxPoint x="-1860" y="659" as="sourcePoint" />
              <mxPoint x="490" y="379" as="targetPoint" />
              <mxPoint as="offset" />
              <Array as="points">
                <mxPoint x="377" y="653" />
              </Array>
            </mxGeometry>
          </mxCell>
        </object>
        <object label="&lt;div&gt;&lt;span style=&quot;font-size: 14px&quot;&gt;&lt;b&gt;%name%&lt;/b&gt;&lt;/span&gt;&lt;/div&gt;&lt;div&gt;&lt;span style=&quot;font-size: 8px&quot;&gt;[Component: %technology%]&lt;/span&gt;&lt;/div&gt;&lt;div&gt;&lt;span style=&quot;font-size: 8px&quot;&gt;&lt;br&gt;&lt;/span&gt;&lt;/div&gt;&lt;div&gt;&lt;font size=&quot;1&quot;&gt;%description%&lt;/font&gt;&lt;/div&gt;" placeholders="1" name="Tor Web Client" technology="JavaScript" description="A web based client that uses the Onion Router, free and open-source software for enabling anonymous communication. The client implements the zkSNARK protocol." id="Of3BvKV9Z6P5hoSYGOiL-7">
          <mxCell style="rounded=0;whiteSpace=wrap;html=1;fillColor=#85baf0;fontColor=#000000;strokeColor=#6992BD;resizable=0;rotatable=0;metaEdit=1;allowArrows=0;" vertex="1" parent="1">
            <mxGeometry x="-1814" y="600" width="180" height="120" as="geometry" />
          </mxCell>
        </object>
      </root>
    </mxGraphModel>
  </diagram>
</mxfile>
